<svg width="89" height="15" viewBox="0 0 89 15" fill="none" xmlns="http://www.w3.org/2000/svg">
<path fill-rule="evenodd" clip-rule="evenodd" d="M7.6815 12.0032L3.41619 14.6084L4.57586 9.74678L0.78009 6.4953L5.76211 6.0959L7.6815 1.48114L9.60088 6.0959L14.5829 6.4953L10.7871 9.74678L11.9468 14.6084L7.6815 12.0032Z" fill="#F1BD38"/>
<path fill-rule="evenodd" clip-rule="evenodd" d="M26.0851 12.0032L21.8198 14.6084L22.9794 9.74678L19.1837 6.4953L24.1657 6.0959L26.0851 1.48114L28.0044 6.0959L32.9865 6.4953L29.1907 9.74678L30.3504 14.6084L26.0851 12.0032Z" fill="#F1BD38"/>
<path fill-rule="evenodd" clip-rule="evenodd" d="M44.489 12.0032L40.2237 14.6084L41.3834 9.74678L37.5876 6.4953L42.5696 6.0959L44.489 1.48114L46.4084 6.0959L51.3904 6.4953L47.5946 9.74678L48.7543 14.6084L44.489 12.0032Z" fill="#F1BD38"/>
<path fill-rule="evenodd" clip-rule="evenodd" d="M62.8926 12.0032L58.6273 14.6084L59.7869 9.74678L55.9911 6.4953L60.9732 6.0959L62.8926 1.48114L64.8119 6.0959L69.794 6.4953L65.9982 9.74678L67.1579 14.6084L62.8926 12.0032Z" fill="#F1BD38"/>
<path d="M81.5384 1.48114L83.3725 6.21331L88.4398 6.49527L84.506 9.70195L85.8038 14.6084L81.5384 11.858L77.2731 14.6084L78.5708 9.70195L74.637 6.49527L79.7044 6.21331L81.5384 1.48114Z" fill="#ACB6C3"/>
<path d="M81.5347 1.48114L83.3736 6.22585V13.0713L81.5347 11.8855L77.2581 14.6432L78.5592 9.72374L74.615 6.50856L79.6958 6.22585L81.5347 1.48114Z" fill="#F1BD38"/>
</svg>
