<svg width="500" height="500" viewBox="0 0 500 500" fill="none" xmlns="http://www.w3.org/2000/svg">
<rect width="500" height="500" fill="white"/>
<path d="M180.162 210.753L149.706 289.247H165.931L171.913 273.838H193.304L199.196 258.611H177.805L188.591 230.875L211.251 289.247H227.476L197.021 210.753H180.162ZM149.706 210.843H94.7783V225.98H114.719V289.338H129.856V225.98H149.706V210.843ZM48.0079 210.843C37.0404 210.843 27.1606 215.375 20.0906 222.536L30.7862 233.232C35.1369 228.79 41.2099 225.98 48.0079 225.98C61.2414 225.98 72.0276 236.767 72.0276 250C72.0276 263.234 61.2414 274.02 48.0079 274.02C41.3005 274.02 35.1369 271.21 30.7862 266.769L20 277.464C27.07 284.715 37.0404 289.157 47.9172 289.157C69.5803 289.157 87.1645 271.572 87.1645 250C87.1645 228.337 69.5803 210.843 48.0079 210.843ZM69.8522 242.386H38.1281L38.3094 257.614H63.9606L69.8522 242.386ZM426.16 210.753H410.841V289.247H426.16V257.614H458.518L464.41 242.386H426.16V210.753ZM464.682 210.753V246.012V289.247H480V210.753H464.682ZM356.457 210.662C334.794 210.662 317.3 228.246 317.3 249.909C317.3 271.572 334.885 289.066 356.457 289.066C378.12 289.066 395.614 271.482 395.614 249.909C395.704 228.246 378.12 210.662 356.457 210.662ZM356.457 273.929C343.224 273.929 332.437 263.143 332.437 249.909C332.437 236.676 343.224 225.89 356.457 225.89C369.691 225.89 380.477 236.676 380.477 249.909C380.477 263.143 369.691 273.929 356.457 273.929ZM265.454 210.753L234.999 289.247H251.133L273.793 230.875L296.453 289.247H312.678L282.223 210.753H265.454Z" fill="#1E3A8A"/>
</svg>
